<svg width="390" height="113" viewBox="0 0 390 113" fill="none" xmlns="http://www.w3.org/2000/svg">
<path opacity="0.1" d="M-52.8802 -139.882C-54.0414 -151.165 -53.9727 -162.466 -52.6756 -173.534C-52.2394 -177.259 -51.6643 -180.918 -50.9504 -184.51C-50.0786 -188.938 -48.9911 -193.293 -47.6927 -197.557C-47.0378 -199.71 -46.3295 -201.827 -45.5678 -203.907C-46.7634 -215.478 -45.8098 -227.028 -42.7671 -237.827C-37.2486 -257.202 -25.523 -273.213 -9.72522 -282.943C0.164761 -289.041 11.2977 -292.525 22.8805 -293.148L420.422 -311.931C438.107 -312.811 456.022 -308.416 472.348 -299.192C474.761 -297.827 477.125 -296.364 479.442 -294.802C484.472 -291.407 489.264 -287.559 493.768 -283.302C499.865 -277.539 505.381 -271.038 510.202 -263.936C521.524 -247.308 528.616 -227.769 530.657 -207.582C542.307 -188.926 550.299 -166.295 552.809 -141.691C555.975 -110.647 549.874 -81.9035 537.291 -59.7684C534.669 -55.1442 531.726 -50.7708 528.487 -46.6845C525.292 -42.6415 521.795 -38.9125 518.03 -35.5328C515.019 -32.8241 511.833 -30.3577 508.495 -28.1505C507.102 -27.2298 505.698 -26.3663 504.264 -25.5533C503.005 -24.8296 501.727 -24.1511 500.429 -23.5064C498.873 -22.7319 497.289 -22.0159 495.679 -21.3583C494.07 -20.7008 492.475 -20.1133 490.895 -19.5957C488.573 -18.8275 486.197 -18.18 483.768 -17.6531C481.755 -17.2172 479.732 -16.8848 477.703 -16.604C476.088 -16.3968 474.454 -16.2426 472.801 -16.1414L471.906 -16.0991C470.083 -16.013 468.263 -16.0078 466.452 -16.0609C466.306 -15.6265 466.145 -15.1857 465.999 -14.7514C465.438 -13.1883 464.852 -11.624 464.257 -10.0883L464.262 -10.0481C464.16 -9.78332 464.058 -9.51855 463.951 -9.25932C463.472 -8.00629 462.966 -6.76355 462.443 -5.53156C462.205 -4.94266 461.968 -4.38847 461.722 -3.82805C461.669 -3.69269 461.615 -3.56308 461.552 -3.42723C461.304 -2.83784 461.05 -2.24821 460.791 -1.65832C459.5 1.24858 458.141 4.11438 456.714 6.93911C456.59 7.18182 456.475 7.4183 456.35 7.65528C456.127 8.09326 455.924 8.52458 455.67 8.95827C455.077 10.1012 454.464 11.2507 453.844 12.3834C453.411 13.1836 452.978 13.9839 452.502 14.7574C451.368 16.7519 450.197 18.7365 448.993 20.6997C447.788 22.6628 446.509 24.6411 445.21 26.5798C445.031 26.8482 444.852 27.1109 444.664 27.3797L442.75 30.1562C442.656 30.2878 442.575 30.4071 442.485 30.5269C442.256 30.8554 442.037 31.1834 441.787 31.5072C440.757 32.9538 439.694 34.3846 438.624 35.7984C433.155 42.9757 427.236 49.701 420.904 55.9292C420.657 56.1835 420.404 56.4265 420.157 56.6692C418.969 57.8345 417.759 58.9834 416.547 60.1151C409.878 66.3089 402.826 71.9868 395.437 77.1135C394.929 77.484 394.41 77.8378 393.885 78.1919C387.251 82.718 380.372 86.815 373.28 90.4643C369.416 92.453 365.468 94.3263 361.436 96.0841C358.765 97.2328 356.079 98.3359 353.349 99.3545C349.131 100.967 344.844 102.444 340.488 103.786C327.655 107.727 314.465 110.411 301.06 111.807C296.989 112.242 292.86 112.558 288.673 112.756C268.47 113.741 248.051 111.833 227.909 107.078C227.672 106.744 227.367 106.477 227.022 106.303C226.678 106.128 226.306 106.051 225.94 106.079L224.22 106.16C223.45 105.971 222.684 105.771 221.912 105.565C217.6 104.409 213.335 103.13 209.118 101.727L208.052 101.361C197.638 97.8384 187.411 93.4952 177.453 88.3659C168.478 83.7522 159.751 78.4827 151.333 72.594C150.037 71.6848 148.756 70.7652 147.492 69.8352C146.184 70.9253 144.846 71.9685 143.48 72.965C138.207 76.8374 132.508 79.9869 126.495 82.3514C113.924 87.2904 100.218 88.5456 86.6217 86.003C69.1868 82.7543 52.7517 73.4219 38.8474 59.7012C33.1825 54.1051 28.013 47.9066 23.4222 41.2057C23.0902 40.7246 22.7577 40.2378 22.4348 39.7447C18.4752 33.7883 14.9535 27.5022 11.9074 20.9543C11.7958 20.717 11.6846 20.4854 11.5832 20.2476C8.7621 14.1185 6.34574 7.79271 4.35496 1.3244C4.26011 0.999626 4.15447 0.669602 4.05904 0.339076C2.17543 -5.92277 0.680058 -12.2934 -0.416146 -18.7257C-0.439608 -18.9557 -0.463752 -19.1914 -0.528734 -19.4252C-1.0842 -22.7532 -1.53759 -26.1225 -1.88888 -29.5333C-2.19963 -32.5802 -2.41587 -35.6084 -2.5524 -38.6115C-2.58582 -38.9392 -2.58006 -39.2861 -2.58847 -39.6207C-2.63152 -40.4967 -2.6517 -41.3506 -2.67487 -42.2334C-6.94558 -45.5882 -11.0001 -49.2902 -14.8019 -53.3059C-16.4798 -55.0635 -18.117 -56.8943 -19.7138 -58.7983C-24.5769 -64.5805 -28.9688 -70.8274 -32.8304 -77.4548C-43.3468 -95.4312 -50.5237 -116.777 -52.8802 -139.882Z" fill="#4804B6" fill-opacity="0.77"/>
</svg>
