<svg width="390" height="170" viewBox="0 0 390 170" fill="none" xmlns="http://www.w3.org/2000/svg">
<path opacity="0.1" d="M-76.8801 -82.8816C-78.0413 -94.1652 -77.9726 -105.466 -76.6755 -116.534C-76.2392 -120.259 -75.6642 -123.918 -74.9503 -127.51C-74.0784 -131.938 -72.991 -136.293 -71.6926 -140.557C-71.0377 -142.71 -70.3294 -144.826 -69.5677 -146.907C-70.7633 -158.478 -69.8097 -170.028 -66.767 -180.827C-61.2485 -200.202 -49.5229 -216.213 -33.7251 -225.943C-23.8351 -232.041 -12.7022 -235.525 -1.11939 -236.148L396.422 -254.931C414.107 -255.811 432.022 -251.416 448.348 -242.192C450.761 -240.827 453.126 -239.364 455.442 -237.802C460.472 -234.406 465.264 -230.559 469.768 -226.302C475.865 -220.539 481.381 -214.038 486.203 -206.936C497.524 -190.308 504.616 -170.769 506.657 -150.582C518.307 -131.926 526.299 -109.295 528.809 -84.6905C531.975 -53.6469 525.874 -24.9035 513.291 -2.76837C510.669 1.8558 507.726 6.22926 504.487 10.3155C501.292 14.3585 497.795 18.0875 494.03 21.4672C491.019 24.176 487.833 26.6423 484.495 28.8495C483.102 29.7703 481.698 30.6338 480.264 31.4467C479.005 32.1705 477.727 32.8489 476.429 33.4937C474.873 34.2681 473.289 34.9841 471.679 35.6417C470.07 36.2993 468.475 36.8868 466.895 37.4043C464.573 38.1725 462.198 38.8201 459.769 39.3469C457.755 39.7828 455.732 40.1153 453.703 40.396C452.088 40.6032 450.454 40.7574 448.802 40.8586L447.906 40.901C446.083 40.9871 444.263 40.9922 442.452 40.9391C442.306 41.3735 442.145 41.8143 441.999 42.2486C441.438 43.8117 440.852 45.376 440.258 46.9118L440.262 46.952C440.16 47.2167 440.058 47.4815 439.951 47.7407C439.472 48.9937 438.966 50.2365 438.443 51.4685C438.205 52.0574 437.969 52.6116 437.722 53.172C437.669 53.3073 437.615 53.4369 437.552 53.5728C437.304 54.1622 437.05 54.7518 436.791 55.3417C435.5 58.2486 434.141 61.1144 432.714 63.9391C432.59 64.1818 432.475 64.4184 432.35 64.6553C432.127 65.0933 431.925 65.5246 431.67 65.9583C431.077 67.1012 430.464 68.2508 429.844 69.3834C429.411 70.1836 428.978 70.9839 428.502 71.7574C427.368 73.7519 426.197 75.7366 424.993 77.6997C423.789 79.6629 422.509 81.6411 421.21 83.5799C421.031 83.8483 420.852 84.1109 420.664 84.3797L418.75 87.1562C418.656 87.2878 418.575 87.4071 418.485 87.5269C418.256 87.8554 418.037 88.1835 417.787 88.5072C416.757 89.9538 415.694 91.3846 414.624 92.7984C409.156 99.9758 403.236 106.701 396.904 112.929C396.657 113.183 396.404 113.427 396.157 113.669C394.969 114.834 393.759 115.983 392.547 117.115C385.878 123.309 378.826 128.987 371.437 134.113C370.929 134.484 370.41 134.838 369.885 135.192C363.251 139.718 356.372 143.815 349.28 147.464C345.416 149.453 341.468 151.326 337.436 153.084C334.765 154.233 332.079 155.336 329.349 156.355C325.131 157.967 320.844 159.444 316.488 160.786C303.655 164.727 290.465 167.411 277.06 168.807C272.989 169.242 268.86 169.558 264.673 169.756C244.47 170.741 224.051 168.833 203.91 164.078C203.672 163.744 203.367 163.477 203.023 163.303C202.678 163.128 202.306 163.051 201.94 163.079L200.22 163.16C199.45 162.971 198.684 162.771 197.912 162.565C193.6 161.409 189.335 160.13 185.118 158.727L184.052 158.361C173.638 154.838 163.411 150.495 153.453 145.366C144.478 140.752 135.751 135.483 127.333 129.594C126.037 128.685 124.756 127.765 123.492 126.835C122.184 127.925 120.846 128.969 119.48 129.965C114.207 133.837 108.508 136.987 102.496 139.351C89.9245 144.29 76.2182 145.546 62.6218 143.003C45.1869 139.754 28.7518 130.422 14.8475 116.701C9.18258 111.105 4.01308 104.907 -0.577646 98.2057C-0.909639 97.7246 -1.24221 97.2378 -1.56511 96.7447C-5.52463 90.7883 -9.04642 84.5022 -12.0925 77.9543C-12.2041 77.717 -12.3152 77.4854 -12.4166 77.2476C-15.2378 71.1185 -17.6541 64.7927 -19.6449 58.3244C-19.7398 57.9996 -19.8454 57.6696 -19.9408 57.3391C-21.8244 51.0772 -23.3198 44.7066 -24.416 38.2743C-24.4395 38.0443 -24.4636 37.8086 -24.5286 37.5748C-25.0841 34.2469 -25.5374 30.8775 -25.8888 27.4667C-26.1995 24.4198 -26.4157 21.3916 -26.5523 18.3885C-26.5857 18.0608 -26.5799 17.7139 -26.5884 17.3793C-26.6314 16.5033 -26.6516 15.6493 -26.6748 14.7666C-30.9455 11.4118 -35 7.70982 -38.8018 3.69414C-40.4797 1.93649 -42.1169 0.105696 -43.7137 -1.79829C-48.5767 -7.58044 -52.9687 -13.8274 -56.8303 -20.4548C-67.3467 -38.4312 -74.5236 -59.7771 -76.8801 -82.8816Z" fill="#4804B6" fill-opacity="0.77"/>
</svg>
