<svg width="390" height="392" viewBox="0 0 390 392" fill="none" xmlns="http://www.w3.org/2000/svg">
<path opacity="0.1" d="M500.053 119.081C507.199 127.891 513.324 137.388 518.293 147.362C519.966 150.719 521.486 154.097 522.854 157.494C524.546 161.677 526.019 165.918 527.265 170.198C527.894 172.358 528.459 174.517 528.96 176.676C536.291 185.707 541.812 195.897 545.173 206.601C551.154 225.839 550.097 245.656 542.197 262.444C537.254 272.959 529.841 281.966 520.487 288.824L197.991 522.038C183.669 532.45 166.268 538.572 147.555 539.783C144.789 539.96 142.009 540.029 139.216 539.989C133.148 539.898 127.031 539.3 120.932 538.2C112.676 536.711 104.502 534.288 96.5803 530.98C78.0064 523.255 61.3805 510.779 48.628 494.998C28.6689 485.755 9.59818 471.184 -5.96351 451.961C-25.5974 427.707 -36.2154 400.309 -37.7927 374.897C-38.1275 369.591 -38.0567 364.32 -37.5809 359.128C-37.1186 353.996 -36.2316 348.961 -34.9286 344.072C-33.89 340.157 -32.5728 336.35 -30.9859 332.676C-30.3238 331.143 -29.6212 329.653 -28.8652 328.187C-28.2077 326.893 -27.5087 325.626 -26.7754 324.376C-25.896 322.876 -24.9623 321.41 -23.9745 319.979C-22.9867 318.548 -21.9732 317.184 -20.9341 315.887C-19.4106 313.973 -17.7763 312.131 -16.0312 310.361C-14.5846 308.895 -13.0725 307.51 -11.5277 306.165C-10.2895 305.108 -9.00627 304.085 -7.67805 303.096L-6.9513 302.571C-5.47288 301.501 -3.95184 300.501 -2.40692 299.555C-2.52232 299.111 -2.6289 298.654 -2.7443 298.211C-3.13005 296.596 -3.49504 294.966 -3.8377 293.355L-3.86314 293.323C-3.92293 293.046 -3.98274 292.769 -4.03474 292.493C-4.31915 291.182 -4.57551 289.865 -4.81215 288.548C-4.93488 287.925 -5.03994 287.331 -5.14034 286.728C-5.16997 286.585 -5.19598 286.447 -5.21731 286.299C-5.33173 285.67 -5.44199 285.037 -5.5481 284.402C-6.05754 281.262 -6.48788 278.12 -6.83913 274.975C-6.86777 274.704 -6.90107 274.443 -6.92607 274.176C-6.97918 273.688 -7.04527 273.216 -7.06983 272.714C-7.19846 271.432 -7.31411 270.135 -7.41471 268.847C-7.49027 267.941 -7.56583 267.034 -7.58999 266.126C-7.73191 263.836 -7.83748 261.534 -7.9036 259.232C-7.96971 256.93 -7.98079 254.574 -7.95397 252.24C-7.95147 251.918 -7.94534 251.6 -7.93454 251.272L-7.85196 247.901C-7.84474 247.739 -7.8427 247.595 -7.83237 247.445C-7.82054 247.045 -7.81703 246.651 -7.78496 246.243C-7.71384 244.469 -7.6069 242.689 -7.48489 240.921C-6.83377 231.921 -5.55767 223.053 -3.66516 214.375C-3.59777 214.027 -3.51895 213.686 -3.44428 213.347C-3.08754 211.722 -2.70329 210.098 -2.30812 208.488C-0.114021 199.654 2.68227 191.044 6.06336 182.709C6.28541 182.122 6.52666 181.541 6.77208 180.958C9.84924 173.54 13.3658 166.347 17.3058 159.412C19.4525 155.633 21.7326 151.905 24.1458 148.228C25.7531 145.805 27.3978 143.413 29.1261 141.066C31.7748 137.409 34.555 133.827 37.4668 130.321C46.0528 120.001 55.6263 110.538 66.0831 102.036C69.2526 99.4449 72.536 96.9211 75.933 94.4645C92.3055 82.5875 110.441 73.0139 129.903 65.9747C130.284 66.1243 130.685 66.1806 131.069 66.1384C131.453 66.0962 131.807 65.9568 132.098 65.7335L133.493 64.7244C134.241 64.4611 134.992 64.2098 135.751 63.96C139.993 62.5684 144.262 61.3062 148.56 60.1733L149.652 59.896C160.297 57.1474 171.234 55.1881 182.376 54.0335C192.413 52.9856 202.601 52.6223 212.869 52.9462C214.451 52.998 216.026 53.0673 217.593 53.1541C218.092 51.5258 218.641 49.9209 219.239 48.3393C221.535 42.2128 224.582 36.4587 228.321 31.19C236.142 20.1783 246.929 11.629 259.701 6.31895C276.073 -0.500117 294.936 -1.67971 314.081 2.19872C321.885 3.78382 329.603 6.14423 337.112 9.24184C337.653 9.46292 338.198 9.6885 338.738 9.92458C345.311 12.7444 351.698 16.0796 357.83 19.8941C358.053 20.0317 358.273 20.1648 358.488 20.3084C364.203 23.8955 369.686 27.8687 374.891 32.194C375.148 32.4139 375.417 32.6324 375.678 32.8569C380.68 37.068 385.417 41.5826 389.854 46.3672C390 46.5469 390.149 46.731 390.331 46.8911C392.617 49.373 394.84 51.9453 397 54.6082C398.927 56.9887 400.764 59.4052 402.522 61.8444C402.729 62.1004 402.914 62.3939 403.104 62.6694C403.619 63.3791 404.103 64.0829 404.606 64.8091C410.016 65.2809 415.435 66.1615 420.814 67.443C423.181 67.9964 425.553 68.6332 427.931 69.3534C435.165 71.533 442.259 74.3593 449.117 77.7943C467.755 87.0885 485.441 101.03 500.053 119.081Z" fill="#4804B6" fill-opacity="0.77"/>
</svg>
